# Blender v2.81 (sub 16) OBJ File: 'topArm.blend'
# www.blender.org
mtllib topArm.mtl
o holder_Cube.002
v -6.382650 -1.046853 0.190941
v -6.382508 -1.209801 0.166144
v -6.257391 -1.046853 0.166862
v -6.381071 -1.209801 -0.084256
v -6.380929 -1.046853 -0.109054
v -6.255954 -1.046853 -0.083538
v -6.382650 0.598584 0.190941
v -6.257391 0.598584 0.166862
v -6.382508 0.761532 0.166143
v -6.380929 0.598583 -0.109054
v -6.381071 0.761532 -0.084257
v -6.255954 0.598583 -0.083539
v -7.646065 -1.046853 0.183690
v -7.771039 -1.046853 0.158175
v -7.645923 -1.209801 0.158893
v -7.644343 -1.046853 -0.116305
v -7.644485 -1.209801 -0.091508
v -7.769602 -1.046853 -0.092226
v -7.646065 0.598584 0.183690
v -7.645923 0.761532 0.158892
v -7.771039 0.598584 0.158174
v -7.644343 0.598583 -0.116305
v -7.769602 0.598583 -0.092226
v -7.644485 0.761532 -0.091508
v -6.436529 -2.255881 1.094065
v -6.436671 -2.092933 1.118863
v -6.311412 -2.092933 1.094784
v -6.436671 -2.092932 1.118863
v -6.436529 -1.929984 1.094065
v -6.311412 -2.092932 1.094784
v -6.425335 -2.255882 -0.856307
v -6.300219 -2.092933 -0.855589
v -6.425193 -2.092933 -0.881104
v -6.425335 -1.929984 -0.856307
v -6.425193 -2.092933 -0.881104
v -6.300219 -2.092933 -0.855589
v -8.186262 -2.255881 1.084023
v -8.311379 -2.092932 1.083305
v -8.186405 -2.092932 1.108820
v -8.186262 -1.929984 1.084023
v -8.186405 -2.092932 1.108820
v -8.311379 -2.092932 1.083305
v -8.175069 -2.255882 -0.866349
v -8.174927 -2.092933 -0.891147
v -8.300185 -2.092933 -0.867068
v -8.175069 -1.929984 -0.866350
v -8.300185 -2.092933 -0.867068
v -8.174927 -2.092933 -0.891147
v -6.436529 -1.610881 1.094065
v -6.436671 -1.447932 1.118863
v -6.311412 -1.447932 1.094783
v -6.436671 -1.447932 1.118863
v -6.436529 -1.284984 1.094065
v -6.311412 -1.447932 1.094783
v -6.425335 -1.610882 -0.856307
v -6.300219 -1.447933 -0.855589
v -6.425193 -1.447933 -0.881105
v -6.425335 -1.284984 -0.856307
v -6.425193 -1.447933 -0.881105
v -6.300219 -1.447933 -0.855589
v -8.186262 -1.610881 1.084023
v -8.311379 -1.447932 1.083305
v -8.186405 -1.447932 1.108820
v -8.186262 -1.284984 1.084023
v -8.186405 -1.447932 1.108820
v -8.311379 -1.447932 1.083305
v -8.175069 -1.610881 -0.866350
v -8.174927 -1.447933 -0.891147
v -8.300185 -1.447933 -0.867068
v -8.175069 -1.284984 -0.866350
v -8.300185 -1.447933 -0.867068
v -8.174927 -1.447933 -0.891147
v -6.438240 -1.934411 1.089292
v -6.438383 -1.771462 1.114089
v -6.313124 -1.771462 1.090010
v -6.438383 -1.771462 1.114089
v -6.438240 -1.608514 1.089292
v -6.313124 -1.771462 1.090010
v -6.427046 -1.934412 -0.861081
v -6.301929 -1.771463 -0.860363
v -6.426904 -1.771463 -0.885878
v -6.427046 -1.608514 -0.861081
v -6.426904 -1.771463 -0.885878
v -6.301929 -1.771463 -0.860363
v -7.187990 -1.934411 1.084989
v -7.313107 -1.771462 1.084270
v -7.188133 -1.771462 1.109786
v -7.187990 -1.608514 1.084989
v -7.188133 -1.771462 1.109786
v -7.313107 -1.771462 1.084270
v -7.176796 -1.934411 -0.865384
v -7.176654 -1.771463 -0.890181
v -7.301913 -1.771463 -0.866102
v -7.176796 -1.608514 -0.865384
v -7.301913 -1.771463 -0.866102
v -7.176654 -1.771463 -0.890181
vt 0.395665 0.770665
vt 0.604335 0.770665
vt 0.604335 0.979335
vt 0.395665 0.979335
vt 0.395665 0.520665
vt 0.604335 0.520665
vt 0.604335 0.729335
vt 0.395665 0.729335
vt 0.140640 0.503100
vt 0.359360 0.503100
vt 0.359360 0.746900
vt 0.140640 0.746900
vt 0.645665 0.520665
vt 0.854335 0.520665
vt 0.854335 0.729335
vt 0.645665 0.729335
vt 0.395665 0.020665
vt 0.604335 0.020665
vt 0.604335 0.229335
vt 0.395665 0.229335
vt 0.395665 0.270665
vt 0.604335 0.270665
vt 0.604335 0.479335
vt 0.395665 0.479335
vt 0.500000 0.765640
vt 0.500000 0.765640
vt 0.500000 0.984360
vt 0.500000 0.984360
vt 0.500000 0.503100
vt 0.500000 0.503100
vt 0.500000 0.746900
vt 0.500000 0.746900
vt 0.140640 0.503100
vt 0.359360 0.503100
vt 0.359360 0.746900
vt 0.140640 0.746900
vt 0.640640 0.503100
vt 0.859360 0.503100
vt 0.859360 0.746900
vt 0.640640 0.746900
vt 0.500000 0.003100
vt 0.500000 0.003100
vt 0.500000 0.246900
vt 0.500000 0.246900
vt 0.500000 0.265640
vt 0.500000 0.265640
vt 0.500000 0.484360
vt 0.500000 0.484360
vt 0.500000 0.765640
vt 0.500000 0.765640
vt 0.500000 0.984360
vt 0.500000 0.984360
vt 0.500000 0.503100
vt 0.500000 0.503100
vt 0.500000 0.746900
vt 0.500000 0.746900
vt 0.156280 0.503100
vt 0.343720 0.503100
vt 0.343720 0.746900
vt 0.156280 0.746900
vt 0.640640 0.503100
vt 0.859360 0.503100
vt 0.859360 0.746900
vt 0.640640 0.746900
vt 0.500000 0.003100
vt 0.500000 0.003100
vt 0.500000 0.246900
vt 0.500000 0.246900
vt 0.500000 0.265640
vt 0.500000 0.265640
vt 0.500000 0.484360
vt 0.500000 0.484360
vt 0.500000 0.781280
vt 0.500000 0.781280
vt 0.500000 0.968720
vt 0.500000 0.968720
vt 0.500000 0.503100
vt 0.500000 0.503100
vt 0.500000 0.746900
vt 0.500000 0.746900
vt 0.656280 0.503100
vt 0.843720 0.503100
vt 0.843720 0.746900
vt 0.656280 0.746900
vt 0.500000 0.003100
vt 0.500000 0.003100
vt 0.500000 0.246900
vt 0.500000 0.246900
vt 0.500000 0.281280
vt 0.500000 0.281280
vt 0.500000 0.468720
vt 0.500000 0.468720
vt 0.145665 0.729335
vt 0.145665 0.750000
vt 0.125000 0.729335
vt 0.625000 0.979335
vt 0.604335 1.000000
vt 0.145665 0.520665
vt 0.125000 0.520665
vt 0.145665 0.500000
vt 0.854335 0.500000
vt 0.875000 0.520665
vt 0.354335 0.729335
vt 0.375000 0.729335
vt 0.354335 0.750000
vt 0.645665 0.750000
vt 0.625000 0.729335
vt 0.354335 0.520665
vt 0.354335 0.500000
vt 0.375000 0.520665
vt 0.625000 0.520665
vt 0.645665 0.500000
vt 0.140640 0.750000
vt 0.125000 0.746900
vt 0.625000 0.984360
vt 0.500000 1.000000
vt 0.125000 0.503100
vt 0.140640 0.500000
vt 0.859360 0.500000
vt 0.875000 0.503100
vt 0.375000 0.746900
vt 0.359360 0.750000
vt 0.640640 0.750000
vt 0.625000 0.746900
vt 0.359360 0.500000
vt 0.375000 0.503100
vt 0.625000 0.503100
vt 0.640640 0.500000
vt 0.140640 0.750000
vt 0.125000 0.746900
vt 0.625000 0.984360
vt 0.500000 1.000000
vt 0.125000 0.503100
vt 0.140640 0.500000
vt 0.859360 0.500000
vt 0.875000 0.503100
vt 0.375000 0.746900
vt 0.359360 0.750000
vt 0.640640 0.750000
vt 0.625000 0.746900
vt 0.359360 0.500000
vt 0.375000 0.503100
vt 0.625000 0.503100
vt 0.640640 0.500000
vt 0.156280 0.750000
vt 0.125000 0.746900
vt 0.625000 0.968720
vt 0.500000 1.000000
vt 0.125000 0.503100
vt 0.156280 0.500000
vt 0.843720 0.500000
vt 0.875000 0.503100
vt 0.375000 0.746900
vt 0.343720 0.750000
vt 0.656280 0.750000
vt 0.625000 0.746900
vt 0.343720 0.500000
vt 0.375000 0.503100
vt 0.625000 0.503100
vt 0.656280 0.500000
vt 0.395665 1.000000
vt 0.875000 0.729335
vt 0.854335 0.750000
vt 0.500000 1.000000
vt 0.875000 0.746900
vt 0.859360 0.750000
vt 0.500000 1.000000
vt 0.875000 0.746900
vt 0.859360 0.750000
vt 0.500000 1.000000
vt 0.875000 0.746900
vt 0.843720 0.750000
vn -0.0000 -1.0000 0.0000
vn -1.0000 0.0000 -0.0057
vn 0.0000 1.0000 -0.0000
vn 0.0057 -0.0000 -1.0000
vn 1.0000 0.0000 0.0057
vn 0.0025 0.0000 -1.0000
vn 1.0000 0.0000 0.0000
vn -0.9999 0.0000 -0.0160
vn -1.0000 0.0000 0.0000
vn 0.0000 0.0000 1.0000
vn -0.0022 0.0000 1.0000
vn 0.1867 -0.1476 0.9713
vn 0.1978 -0.1476 -0.9691
vn 0.1867 0.1476 0.9713
vn 0.1978 0.1476 -0.9691
vn -0.1978 -0.1476 0.9691
vn -0.1867 -0.1476 -0.9713
vn -0.1978 0.1476 0.9691
vn -0.1867 0.1476 -0.9713
vn 0.1888 0.0000 0.9820
vn 0.7931 -0.6090 0.0046
vn 0.2000 -0.0000 -0.9798
vn 0.7931 0.6090 0.0046
vn -0.0057 0.1504 0.9886
vn 0.0057 0.1504 -0.9886
vn -0.7931 0.6090 -0.0046
vn -0.2000 0.0000 0.9798
vn -0.1888 -0.0000 -0.9820
vn -0.7931 -0.6090 -0.0046
vn -0.0057 -0.1504 0.9886
vn 0.0057 -0.1504 -0.9886
vn -0.1892 0.0000 -0.9819
vn 0.1892 0.0000 0.9819
vn -0.0057 0.0000 1.0000
usemtl None
s off
f 15/1/1 17/2/1 4/3/1 2/4/1
f 21/5/2 23/6/2 18/7/2 14/8/2
f 31/9/3 43/10/3 37/11/3 25/12/3
f 22/13/4 10/14/4 5/15/4 16/16/4
f 3/17/5 6/18/5 12/19/5 8/20/5
f 9/21/3 11/22/3 24/23/3 20/24/3
f 39/25/6 41/26/6 28/27/6 26/28/6
f 45/29/7 47/30/7 42/31/7 38/32/7
f 55/33/3 67/34/3 61/35/3 49/36/3
f 46/37/1 34/38/1 29/39/1 40/40/1
f 27/41/8 30/42/8 36/43/8 32/44/8
f 33/45/9 35/46/9 48/47/9 44/48/9
f 63/49/7 65/50/7 52/51/7 50/52/7
f 69/53/7 71/54/7 66/55/7 62/56/7
f 79/57/3 91/58/3 85/59/3 73/60/3
f 70/61/1 58/62/1 53/63/1 64/64/1
f 51/65/10 54/66/10 60/67/10 56/68/10
f 57/69/10 59/70/10 72/71/10 68/72/10
f 87/73/7 89/74/7 76/75/7 74/76/7
f 93/77/7 95/78/7 90/79/7 86/80/7
f 94/81/1 82/82/1 77/83/1 88/84/1
f 75/85/8 78/86/8 84/87/8 80/88/8
f 81/89/11 83/90/11 96/91/11 92/92/11
f 1/93/12 2/94/12 3/95/12
f 4/3/13 5/96/13 6/97/13
f 7/98/14 8/99/14 9/100/14
f 10/14/15 11/101/15 12/102/15
f 13/103/16 14/104/16 15/105/16
f 16/16/17 17/106/17 18/107/17
f 19/108/18 20/109/18 21/110/18
f 22/13/19 23/111/19 24/112/19
f 25/12/19 26/113/19 27/114/19
f 28/27/17 29/115/17 30/116/17
f 31/9/18 32/117/18 33/118/18
f 34/38/16 35/119/16 36/120/16
f 37/11/15 38/121/15 39/122/15
f 40/40/13 41/123/13 42/124/13
f 43/10/14 44/125/14 45/126/14
f 46/37/12 47/127/12 48/128/12
f 49/36/19 50/129/19 51/130/19
f 52/51/17 53/131/17 54/132/17
f 55/33/18 56/133/18 57/134/18
f 58/62/16 59/135/16 60/136/16
f 61/35/15 62/137/15 63/138/15
f 64/64/13 65/139/13 66/140/13
f 67/34/14 68/141/14 69/142/14
f 70/61/12 71/143/12 72/144/12
f 73/60/19 74/145/19 75/146/19
f 76/75/17 77/147/17 78/148/17
f 79/57/18 80/149/18 81/150/18
f 82/82/16 83/151/16 84/152/16
f 85/59/15 86/153/15 87/154/15
f 88/84/13 89/155/13 90/156/13
f 91/58/14 92/157/14 93/158/14
f 94/81/12 95/159/12 96/160/12
f 7/98/20 1/93/20 3/95/20 8/99/20
f 2/4/21 4/3/21 6/97/21 3/161/21
f 5/15/22 10/14/22 12/102/22 6/162/22
f 11/22/23 9/21/23 8/20/23 12/19/23
f 19/108/24 7/98/24 9/100/24 20/109/24
f 10/14/25 22/13/25 24/112/25 11/101/25
f 23/6/26 21/5/26 20/24/26 24/23/26
f 13/103/27 19/108/27 21/5/27 14/8/27
f 22/13/28 16/16/28 18/7/28 23/6/28
f 17/2/29 15/1/29 14/8/29 18/7/29
f 1/93/30 13/103/30 15/105/30 2/94/30
f 16/16/31 5/15/31 4/163/31 17/106/31
f 31/9/26 25/12/26 27/114/26 32/117/26
f 26/28/32 28/27/32 30/116/32 27/164/32
f 29/39/29 34/38/29 36/120/29 30/165/29
f 35/46/10 33/45/10 32/44/10 36/43/10
f 43/10/24 31/9/24 33/118/24 44/125/24
f 34/38/30 46/37/30 48/128/30 35/119/30
f 47/30/33 45/29/33 44/48/33 48/47/33
f 37/11/23 43/10/23 45/29/23 38/32/23
f 46/37/21 40/40/21 42/31/21 47/30/21
f 41/26/10 39/25/10 38/32/10 42/31/10
f 25/12/25 37/11/25 39/122/25 26/113/25
f 40/40/31 29/39/31 28/166/31 41/123/31
f 55/33/26 49/36/26 51/130/26 56/133/26
f 50/52/10 52/51/10 54/132/10 51/167/10
f 53/63/29 58/62/29 60/136/29 54/168/29
f 59/70/10 57/69/10 56/68/10 60/67/10
f 67/34/24 55/33/24 57/134/24 68/141/24
f 58/62/30 70/61/30 72/144/30 59/135/30
f 71/54/10 69/53/10 68/72/10 72/71/10
f 61/35/23 67/34/23 69/53/23 62/56/23
f 70/61/21 64/64/21 66/55/21 71/54/21
f 65/50/22 63/49/22 62/56/22 66/55/22
f 49/36/25 61/35/25 63/138/25 50/129/25
f 64/64/31 53/63/31 52/169/31 65/139/31
f 79/57/26 73/60/26 75/146/26 80/149/26
f 74/76/32 76/75/32 78/148/32 75/170/32
f 77/83/29 82/82/29 84/152/29 78/171/29
f 83/90/27 81/89/27 80/88/27 84/87/27
f 91/58/24 79/57/24 81/150/24 92/157/24
f 82/82/30 94/81/30 96/160/30 83/151/30
f 95/78/10 93/77/10 92/92/10 96/91/10
f 85/59/23 91/58/23 93/77/23 86/80/23
f 94/81/21 88/84/21 90/79/21 95/78/21
f 89/74/22 87/73/22 86/80/22 90/79/22
f 73/60/25 85/59/25 87/154/25 74/145/25
f 88/84/31 77/83/31 76/172/31 89/155/31
f 7/98/34 19/108/34 13/103/34 1/93/34
o topArm1_Cube.024
v -5.925779 -0.701653 -0.029487
v -7.213561 -0.701653 -0.108547
v -5.926044 -1.001653 -0.112634
v -7.214793 -0.701653 -0.496565
v -5.927539 -0.701653 -0.583799
v -5.927275 -1.001653 -0.500652
v 0.082635 -0.701654 -0.048560
v 0.082371 -1.001655 -0.131707
v 1.369889 -0.701655 -0.135794
v 0.080875 -0.701654 -0.602872
v 1.368657 -0.701655 -0.523812
v 0.081139 -1.001655 -0.519725
v -5.925779 0.698347 -0.029487
v -5.926043 0.998347 -0.112634
v -7.213561 0.698347 -0.108547
v -5.927539 0.698347 -0.583799
v -7.214793 0.698347 -0.496565
v -5.927275 0.998347 -0.500652
v 0.082635 0.698345 -0.048560
v 1.369889 0.698345 -0.135794
v 0.082371 0.998345 -0.131707
v 0.080876 0.698345 -0.602872
v 0.081140 0.998345 -0.519725
v 1.368657 0.698345 -0.523812
vt 0.412500 0.787500
vt 0.587500 0.787500
vt 0.587500 0.962500
vt 0.412500 0.962500
vt 0.412500 0.537500
vt 0.587500 0.537500
vt 0.587500 0.712500
vt 0.412500 0.712500
vt 0.662500 0.537500
vt 0.837500 0.537500
vt 0.837500 0.712500
vt 0.662500 0.712500
vt 0.412500 0.037500
vt 0.587500 0.037500
vt 0.587500 0.212500
vt 0.412500 0.212500
vt 0.412500 0.287500
vt 0.587500 0.287500
vt 0.587500 0.462500
vt 0.412500 0.462500
vt 0.162500 0.712500
vt 0.162500 0.750000
vt 0.125000 0.712500
vt 0.625000 0.962500
vt 0.587500 1.000000
vt 0.162500 0.537500
vt 0.125000 0.537500
vt 0.162500 0.500000
vt 0.837500 0.500000
vt 0.875000 0.537500
vt 0.337500 0.712500
vt 0.375000 0.712500
vt 0.337500 0.750000
vt 0.662500 0.750000
vt 0.625000 0.712500
vt 0.337500 0.537500
vt 0.337500 0.500000
vt 0.375000 0.537500
vt 0.625000 0.537500
vt 0.662500 0.500000
vt 0.412500 1.000000
vt 0.875000 0.712500
vt 0.837500 0.750000
vn -1.0000 0.0000 0.0032
vn 0.0000 1.0000 0.0000
vn -0.0032 0.0000 -1.0000
vn -0.0000 -1.0000 0.0000
vn 1.0000 0.0000 -0.0032
vn -0.0591 -0.2666 0.9620
vn -0.0652 -0.2666 -0.9616
vn 0.0652 -0.2666 0.9616
vn 0.0591 -0.2666 -0.9620
vn -0.0591 0.2666 0.9620
vn -0.0652 0.2666 -0.9616
vn 0.0652 0.2666 0.9616
vn 0.0591 0.2666 -0.9620
vn 0.0031 -0.2671 0.9637
vn -0.2269 -0.9739 0.0007
vn -0.0031 -0.2671 -0.9637
vn 0.2269 -0.9739 -0.0007
vn 0.0676 -0.0000 0.9977
vn 0.0613 -0.0000 -0.9981
vn 0.2269 0.9739 -0.0007
vn 0.0031 0.2671 0.9637
vn -0.0031 0.2671 -0.9637
vn -0.2269 0.9739 0.0007
vn -0.0613 0.0000 0.9981
vn -0.0676 0.0000 -0.9977
vn 0.0032 0.0000 1.0000
usemtl None
s off
f 111/173/35 113/174/35 100/175/35 98/176/35
f 117/177/36 119/178/36 114/179/36 110/180/36
f 118/181/37 106/182/37 101/183/37 112/184/37
f 99/185/38 102/186/38 108/187/38 104/188/38
f 105/189/39 107/190/39 120/191/39 116/192/39
f 97/193/40 98/194/40 99/195/40
f 100/175/41 101/196/41 102/197/41
f 103/198/42 104/199/42 105/200/42
f 106/182/43 107/201/43 108/202/43
f 109/203/44 110/204/44 111/205/44
f 112/184/45 113/206/45 114/207/45
f 115/208/46 116/209/46 117/210/46
f 118/181/47 119/211/47 120/212/47
f 103/198/48 97/193/48 99/195/48 104/199/48
f 98/176/49 100/175/49 102/197/49 99/213/49
f 101/183/50 106/182/50 108/202/50 102/214/50
f 107/190/51 105/189/51 104/188/51 108/187/51
f 115/208/52 103/198/52 105/200/52 116/209/52
f 106/182/53 118/181/53 120/212/53 107/201/53
f 119/178/54 117/177/54 116/192/54 120/191/54
f 109/203/55 115/208/55 117/177/55 110/180/55
f 118/181/56 112/184/56 114/179/56 119/178/56
f 113/174/57 111/173/57 110/180/57 114/179/57
f 97/193/58 109/203/58 111/205/58 98/194/58
f 112/184/59 101/183/59 100/215/59 113/206/59
f 103/198/60 115/208/60 109/203/60 97/193/60
o topArm2_Cube.025
v -5.987781 -0.673497 0.596024
v -7.274962 -0.673497 0.507735
v -5.987449 -0.973497 0.512877
v -7.273413 -0.673497 0.119718
v -5.985567 -0.673497 0.041714
v -5.985899 -0.973497 0.124860
v 0.020616 -0.673498 0.620021
v 0.020948 -0.973498 0.536875
v 1.308462 -0.673498 0.542017
v 0.022830 -0.673498 0.065711
v 1.310012 -0.673498 0.154000
v 0.022498 -0.973498 0.148858
v -5.987781 0.726503 0.596024
v -5.987449 1.026503 0.512877
v -7.274962 0.726503 0.507735
v -5.985567 0.726503 0.041714
v -7.273413 0.726503 0.119718
v -5.985899 1.026503 0.124860
v 0.020617 0.726502 0.620021
v 1.308462 0.726502 0.542017
v 0.020949 1.026502 0.536875
v 0.022830 0.726502 0.065711
v 0.022498 1.026502 0.148858
v 1.310012 0.726502 0.154000
vt 0.412500 0.787500
vt 0.587500 0.787500
vt 0.587500 0.962500
vt 0.412500 0.962500
vt 0.412500 0.537500
vt 0.587500 0.537500
vt 0.587500 0.712500
vt 0.412500 0.712500
vt 0.662500 0.537500
vt 0.837500 0.537500
vt 0.837500 0.712500
vt 0.662500 0.712500
vt 0.412500 0.037500
vt 0.587500 0.037500
vt 0.587500 0.212500
vt 0.412500 0.212500
vt 0.412500 0.287500
vt 0.587500 0.287500
vt 0.587500 0.462500
vt 0.412500 0.462500
vt 0.162500 0.712500
vt 0.162500 0.750000
vt 0.125000 0.712500
vt 0.625000 0.962500
vt 0.587500 1.000000
vt 0.162500 0.537500
vt 0.125000 0.537500
vt 0.162500 0.500000
vt 0.837500 0.500000
vt 0.875000 0.537500
vt 0.337500 0.712500
vt 0.375000 0.712500
vt 0.337500 0.750000
vt 0.662500 0.750000
vt 0.625000 0.712500
vt 0.337500 0.537500
vt 0.337500 0.500000
vt 0.375000 0.537500
vt 0.625000 0.537500
vt 0.662500 0.500000
vt 0.412500 1.000000
vt 0.875000 0.712500
vt 0.837500 0.750000
vn -1.0000 0.0000 -0.0040
vn 0.0000 1.0000 0.0000
vn 0.0040 -0.0000 -1.0000
vn -0.0000 -1.0000 0.0000
vn 1.0000 0.0000 0.0040
vn -0.0660 -0.2666 0.9616
vn -0.0583 -0.2666 -0.9621
vn 0.0583 -0.2666 0.9621
vn 0.0660 -0.2666 -0.9616
vn -0.0660 0.2666 0.9616
vn -0.0583 0.2666 -0.9621
vn 0.0583 0.2666 0.9621
vn 0.0660 0.2666 -0.9616
vn -0.0038 -0.2671 0.9637
vn -0.2269 -0.9739 -0.0009
vn 0.0038 -0.2671 -0.9637
vn 0.2269 -0.9739 0.0009
vn 0.0605 -0.0000 0.9982
vn 0.0684 -0.0000 -0.9977
vn 0.2269 0.9739 0.0009
vn -0.0038 0.2671 0.9637
vn 0.0038 0.2671 -0.9637
vn -0.2269 0.9739 -0.0009
vn -0.0684 0.0000 0.9977
vn -0.0605 0.0000 -0.9982
vn -0.0040 0.0000 1.0000
usemtl None
s off
f 135/216/61 137/217/61 124/218/61 122/219/61
f 141/220/62 143/221/62 138/222/62 134/223/62
f 142/224/63 130/225/63 125/226/63 136/227/63
f 123/228/64 126/229/64 132/230/64 128/231/64
f 129/232/65 131/233/65 144/234/65 140/235/65
f 121/236/66 122/237/66 123/238/66
f 124/218/67 125/239/67 126/240/67
f 127/241/68 128/242/68 129/243/68
f 130/225/69 131/244/69 132/245/69
f 133/246/70 134/247/70 135/248/70
f 136/227/71 137/249/71 138/250/71
f 139/251/72 140/252/72 141/253/72
f 142/224/73 143/254/73 144/255/73
f 127/241/74 121/236/74 123/238/74 128/242/74
f 122/219/75 124/218/75 126/240/75 123/256/75
f 125/226/76 130/225/76 132/245/76 126/257/76
f 131/233/77 129/232/77 128/231/77 132/230/77
f 139/251/78 127/241/78 129/243/78 140/252/78
f 130/225/79 142/224/79 144/255/79 131/244/79
f 143/221/80 141/220/80 140/235/80 144/234/80
f 133/246/81 139/251/81 141/220/81 134/223/81
f 142/224/82 136/227/82 138/222/82 143/221/82
f 137/217/83 135/216/83 134/223/83 138/222/83
f 121/236/84 133/246/84 135/248/84 122/237/84
f 136/227/85 125/226/85 124/258/85 137/249/85
f 127/241/86 139/251/86 133/246/86 121/236/86
